<svg width="1145" height="513" viewBox="0 0 1145 513" fill="none" xmlns="http://www.w3.org/2000/svg">
<path d="M221.124 6.20596H330.558V506.884H256.171V147.826L201.812 506.884H127.425L68.7744 152.833V506.884H0.10997V6.20596H109.544L167.48 361.688L221.124 6.20596Z" fill="white"/>
<path d="M552.298 506.884L538.708 416.047H442.149L428.559 506.884H356.318L436.427 6.20596H551.583L631.691 506.884H552.298ZM527.979 348.098L490.071 94.8976L452.162 348.098H527.979Z" fill="white"/>
<path d="M773.474 6.20596C812.574 6.20596 841.9 16.6964 861.45 37.6772C881 58.658 890.776 89.414 890.776 129.945V195.033C890.776 235.564 881 266.32 861.45 287.301C841.9 308.282 812.574 318.772 773.474 318.772H736.281V506.884H657.602V6.20596H773.474ZM736.281 247.247H773.474C786.348 247.247 795.885 243.671 802.084 236.518C808.76 229.366 812.098 217.206 812.098 200.04V124.938C812.098 107.772 808.76 95.6128 802.084 88.4603C795.885 81.3077 786.348 77.7315 773.474 77.7315H736.281V247.247Z" fill="white"/>
<path d="M1144.66 386.722C1144.66 427.253 1134.64 458.485 1114.62 480.42C1094.59 501.878 1065.5 512.606 1027.36 512.606C989.209 512.606 960.122 501.878 940.095 480.42C920.067 458.485 910.054 427.253 910.054 386.722V126.369C910.054 85.8377 920.067 54.8433 940.095 33.3856C960.122 11.4512 989.209 0.483948 1027.36 0.483948C1065.5 0.483948 1094.59 11.4512 1114.62 33.3856C1134.64 54.8433 1144.66 85.8377 1144.66 126.369V175.006H1070.27V121.362C1070.27 88.4603 1056.68 72.0094 1029.5 72.0094C1002.32 72.0094 988.732 88.4603 988.732 121.362V391.728C988.732 424.153 1002.32 440.366 1029.5 440.366C1056.68 440.366 1070.27 424.153 1070.27 391.728V320.203H1144.66V386.722Z" fill="white"/>
</svg>
